<svg width="142" height="14" viewBox="0 0 142 14" fill="none" xmlns="http://www.w3.org/2000/svg">
<path d="M130.809 0.145416C131.328 0.145451 131.509 0.32539 131.509 0.825104L131.488 5.46573H131.501V7.68546H131.488L131.509 12.3456C131.509 12.8454 131.328 13.0253 130.809 13.0253H129.849C129.329 13.0253 129.148 12.8451 129.148 12.3251V0.845612C129.148 0.325612 129.329 0.145416 129.849 0.145416H130.809ZM140.769 0.145416C141.288 0.145444 141.469 0.325381 141.469 0.825104L141.448 2.06534C141.448 2.56529 141.328 2.86502 140.948 3.20499L137.269 6.54581L140.929 9.98526C141.309 10.3452 141.448 10.6454 141.448 11.1454L141.469 12.3456C141.469 12.8454 141.288 13.0253 140.769 13.0253H139.708C139.188 13.0252 139.008 12.8453 139.028 12.3456L139.068 11.3456L135.188 7.68546H132.801V5.46573H135.208L139.049 1.92569L139.009 0.825104C138.989 0.32533 139.169 0.145416 139.688 0.145416H140.769Z" fill="white"/>
<path d="M120.745 0.106354C121.265 0.106354 121.565 0.22599 121.925 0.585846L123.125 1.76553C123.485 2.1255 123.485 2.36556 123.125 2.72549L122.325 3.50577C121.965 3.86569 121.725 3.866 121.365 3.48624L120.226 2.26553H114.045L112.205 4.10635V9.04581L114.065 10.9062H120.266L121.405 9.70596C121.745 9.34602 121.985 9.34565 122.365 9.72549L123.085 10.4462C123.465 10.8261 123.465 11.0658 123.105 11.4257L121.925 12.5858C121.565 12.9457 121.265 13.0663 120.745 13.0663H113.665C113.145 13.0663 112.845 12.9462 112.465 12.5663L110.285 10.3857C109.905 10.0057 109.785 9.70541 109.785 9.18546V4.00577C109.785 3.48583 109.906 3.18606 110.266 2.82608L112.485 0.585846C112.845 0.225957 113.145 0.106371 113.665 0.106354H120.745Z" fill="white"/>
<path d="M96.0449 3.55057L92.123 7.54373V12.4861C92.1229 12.7621 91.8991 12.9861 91.623 12.9861H90.123C89.847 12.9861 89.6232 12.7621 89.623 12.4861V7.44217C89.623 6.85247 89.8544 6.28575 90.2676 5.86502L94.2783 1.79568L96.0449 3.55057ZM96.8369 0.0290833C96.9455 -0.00990925 97.0641 -0.00945211 97.1729 0.0290833L98.3164 0.434357C98.3862 0.459137 98.4505 0.499257 98.5029 0.551544L103.714 5.74588C104.136 6.16783 104.373 6.74098 104.373 7.33768V12.4861C104.373 12.7621 104.149 12.9861 103.873 12.9861H102.373C102.097 12.9861 101.873 12.7621 101.873 12.4861V7.44119L97.2529 2.82205L97.2559 2.82108L95.2607 0.797638L95.4902 0.566193C95.5428 0.512879 95.6073 0.471417 95.6777 0.446075L96.8369 0.0290833Z" fill="white"/>
<path d="M79.6891 2.34564V12.3256C79.6891 12.8456 79.5091 13.0256 78.9891 13.0256H78.0491C77.5291 13.0256 77.3491 12.8456 77.3491 12.3456L77.3691 2.34564H74.0891L73.1491 3.34564C72.7891 3.72564 72.5491 3.72564 72.1891 3.36564L71.3891 2.58564C71.0291 2.22564 71.0291 1.98564 71.3891 1.62564L72.3691 0.665638C72.7291 0.305639 73.0291 0.185638 73.5491 0.185638H83.5091C84.0291 0.185638 84.3291 0.305639 84.6891 0.665638L85.6691 1.62564C86.0291 1.98564 86.0291 2.22564 85.6691 2.58564L84.8891 3.34564C84.5091 3.72564 84.2491 3.70564 83.8891 3.32564L82.9691 2.34564H79.6891Z" fill="white"/>
<path d="M62.304 10.7813L64.7405 12.9015C64.5873 12.9583 64.4135 12.9854 64.1976 12.9854H56.8382C56.3182 12.9854 56.138 12.8052 56.138 12.2852V11.4659C56.138 10.946 56.3179 10.7658 56.8177 10.7657L62.304 10.7813ZM66.9876 0.16806C67.4363 0.167148 67.659 0.711821 67.3382 1.02548L66.053 2.28232C65.9589 2.37417 65.832 2.42472 65.7005 2.42392L59.2982 2.38583L58.9183 2.84579L66.6976 9.52548C67.1176 9.88548 67.1377 10.1255 66.8177 10.5255L65.6751 11.9874L63.7347 10.3272L63.7376 10.3253L55.9583 3.6456C55.5383 3.28562 55.5178 3.04552 55.8577 2.60556L57.2581 0.765717C57.5981 0.325733 57.8782 0.185638 58.3782 0.185638L66.9876 0.16806Z" fill="white"/>
<path d="M38.3105 0.146271C38.6704 0.146271 38.8309 0.30563 38.8311 0.645294L38.8105 2.38553L43.7344 7.28983L43.7314 7.29373L44.7285 8.2908L44.5312 8.48611L44.5508 12.5262C44.5507 12.8658 44.3908 13.026 44.0312 13.0262H43.8711C43.5112 13.0262 43.3507 12.8659 43.3506 12.5262L43.3906 8.48611L37.9912 3.18533C37.7512 2.94534 37.6309 2.66543 37.6309 2.30545V0.665802C37.6309 0.30596 37.7907 0.14641 38.1504 0.146271H38.3105ZM49.751 0.146271C50.1109 0.146306 50.2705 0.305843 50.2705 0.665802V2.30545C50.2705 2.66527 50.1509 2.94541 49.9111 3.18533L45.4414 7.58865L44.6924 6.84061L49.1309 2.38553L49.0908 0.645294C49.091 0.30563 49.2515 0.146271 49.6113 0.146271H49.751Z" fill="white"/>
<path d="M19.0205 0.145294C19.3804 0.145329 19.54 0.305842 19.54 0.665802V6.00565H28.6094V7.08572H19.54V12.5056C19.54 12.8656 19.3804 13.0261 19.0205 13.0262H18.9199C18.5603 13.026 18.4004 12.8655 18.4004 12.5056V0.665802C18.4004 0.305959 18.5603 0.145433 18.9199 0.145294H19.0205ZM30.2002 0.145294C30.5602 0.145294 30.7207 0.305803 30.7207 0.665802V12.5056C30.7207 12.8656 30.5602 13.0262 30.2002 13.0262H30.1006C29.7407 13.0262 29.5802 12.8659 29.5801 12.5262L29.5986 7.64236H29.6094V5.39236H29.5986L29.5801 0.645294C29.5802 0.30563 29.7408 0.145294 30.1006 0.145294H30.2002Z" fill="white"/>
<path d="M8.67969 0.185333C9.03955 0.185333 9.31963 0.305874 9.55957 0.545685L10.9805 1.96561C11.2203 2.2055 11.3398 2.48571 11.3398 2.84549V5.46561C11.3398 5.82541 11.2202 6.10558 10.9805 6.34549L9.54004 7.76541C9.30004 8.00541 9.01969 8.12576 8.67969 8.12576L2.19141 8.10818V7.08572H8.67969L10.1797 5.58572V2.72537L8.67969 1.22537H1.13965V7.08572H1.19141V8.10623H1.13965V12.4656C1.13965 12.8256 0.980034 13.0056 0.620117 13.0056H0.540039C0.160039 13.0256 0 12.8656 0 12.5056V0.705841C0 0.345997 0.159861 0.185472 0.519531 0.185333H8.67969Z" fill="white"/>
</svg>
